<?xml version="1.0" encoding="utf-8"?>
<!-- Generator: Adobe Illustrator 26.0.3, SVG Export Plug-In . SVG Version: 6.00 Build 0)  -->
<svg version="1.1" id="Ebene_1" xmlns="http://www.w3.org/2000/svg" xmlns:xlink="http://www.w3.org/1999/xlink" x="0px" y="0px"
	 viewBox="0 0 2675.2 569.39" style="enable-background:new 0 0 2675.2 569.39;" xml:space="preserve">
<style type="text/css">
	.st0{fill:#FFFFFF;}
	.st1{fill:#4BC660;}
</style>
<g>
	<g>
		<path class="st0" d="M830.51,14.3v99.18h104.69V14.3h45.18v247.58h-45.18v-109.1H830.51v109.1h-45.18V14.3H830.51z"/>
		<path class="st0" d="M1190.48,208.25c0,21.3,0.74,38.94,1.47,53.63h-39.67l-2.2-27.18h-0.74c-7.71,12.86-25.34,31.22-57.3,31.22
			c-32.69,0-62.44-19.47-62.44-77.87V82.99h45.18v97.34c0,29.75,9.55,48.85,33.43,48.85c18,0,29.75-12.86,34.53-24.24
			c1.47-4.04,2.57-8.82,2.57-13.96V82.99h45.18V208.25z"/>
		<path class="st0" d="M1237.87,261.88c0.73-12.12,1.47-31.96,1.47-50.32V1.08h45.18V107.6h0.74c11.02-17.26,30.49-28.65,57.3-28.65
			c43.71,0,74.93,36.37,74.57,90.73c0,64.28-40.77,96.24-81.18,96.24c-23.14,0-43.71-8.82-56.57-30.86h-0.74l-2.2,26.82H1237.87z
			 M1284.52,188.05c0,3.67,0.37,7.35,1.1,10.65c4.77,18,20.57,31.59,40.04,31.59c28.28,0,45.55-22.77,45.55-58.77
			c0-31.59-15.06-57.3-45.18-57.3c-18.37,0-34.9,13.22-40.04,33.06c-0.73,3.31-1.47,7.35-1.47,11.75V188.05z"/>
		<path class="st0" d="M1486.18,185.11c1.1,32.32,26.45,46.28,55.1,46.28c20.94,0,36-2.94,49.59-8.08l6.61,31.22
			c-15.43,6.24-36.73,11.02-62.44,11.02c-58.04,0-92.2-35.63-92.2-90.36c0-49.59,30.12-96.24,87.42-96.24
			c58.04,0,77.14,47.75,77.14,87.06c0,8.45-0.74,15.06-1.47,19.1H1486.18z M1564.78,153.52c0.37-16.53-6.98-43.71-37.1-43.71
			c-27.92,0-39.67,25.34-41.51,43.71H1564.78z"/>
		<path class="st0" d="M1643.76,140.66c0-24.24-0.37-41.51-1.47-57.67h39.3l1.47,34.16h1.47c8.82-25.34,29.75-38.2,48.85-38.2
			c4.41,0,6.98,0.37,10.65,1.1v42.61c-3.67-0.74-7.71-1.47-13.22-1.47c-21.67,0-36.36,13.96-40.4,34.16
			c-0.74,4.04-1.47,8.82-1.47,13.96v92.57h-45.18V140.66z"/>
		<path class="st0" d="M1834.76,31.93v51.06h42.98v33.79h-42.98v78.97c0,21.67,5.88,33.06,23.14,33.06c7.71,0,13.59-1.1,17.63-2.2
			l0.73,34.53c-6.61,2.57-18.37,4.41-32.69,4.41c-16.53,0-30.49-5.51-38.94-14.69c-9.55-10.29-13.96-26.45-13.96-49.96v-84.12
			h-25.71V82.99h25.71V42.59L1834.76,31.93z"/>
		<path class="st1" d="M830.51,317.03v99.18h104.69v-99.18h45.18V564.6h-45.18v-109.1H830.51v109.1h-45.18V317.03H830.51z"/>
		<path class="st1" d="M1080.65,335.76c0,13.59-9.92,24.24-25.71,24.24c-15.06,0-24.98-10.65-24.98-24.24
			c0-13.96,10.29-24.61,25.35-24.61C1070.74,311.15,1080.29,321.8,1080.65,335.76z M1032.54,564.6V385.72h45.55V564.6H1032.54z"/>
		<path class="st1" d="M1126.57,438.98c0-20.57-0.37-37.83-1.47-53.26h39.67l2.2,26.81h1.1c7.71-13.96,27.18-30.86,56.93-30.86
			c31.22,0,63.55,20.2,63.55,76.77V564.6h-45.18V463.59c0-25.71-9.55-45.18-34.16-45.18c-18,0-30.49,12.86-35.26,26.45
			c-1.47,4.04-1.84,9.55-1.84,14.69V564.6h-45.55V438.98z"/>
		<path class="st1" d="M1381.86,464.32h0.73c4.41-6.98,9.55-14.69,14.33-20.94l43.34-57.67h54.36l-66.12,73.1l75.67,105.79h-55.47
			l-51.43-78.97l-15.43,18v60.98h-45.18V303.8h45.18V464.32z"/>
		<path class="st1" d="M1553.03,487.83c1.1,32.32,26.45,46.28,55.1,46.28c20.94,0,36-2.94,49.59-8.08l6.61,31.22
			c-15.43,6.24-36.73,11.02-62.44,11.02c-58.04,0-92.2-35.63-92.2-90.36c0-49.59,30.12-96.24,87.42-96.24
			c58.04,0,77.14,47.75,77.14,87.06c0,8.45-0.73,15.06-1.47,19.1H1553.03z M1631.64,456.24c0.37-16.53-6.98-43.71-37.1-43.71
			c-27.92,0-39.67,25.34-41.51,43.71H1631.64z"/>
		<path class="st1" d="M1710.61,303.8h45.55v260.8h-45.55V303.8z"/>
		<path class="st1" d="M1805.01,438.98c0-20.57-0.37-37.83-1.47-53.26h38.94l1.84,26.45h1.1c8.82-13.96,24.98-30.49,55.1-30.49
			c23.51,0,41.87,13.22,49.59,33.06h0.73c6.24-9.92,13.59-17.26,22.04-22.41c9.92-6.98,21.31-10.65,36-10.65
			c29.75,0,59.87,20.2,59.87,77.51V564.6h-44.08v-98.81c0-29.75-10.29-47.38-31.96-47.38c-15.43,0-26.82,11.02-31.59,23.88
			c-1.1,4.41-2.2,9.92-2.2,15.06V564.6h-44.08V461.02c0-24.98-9.92-42.61-30.86-42.61c-16.9,0-28.28,13.22-32.32,25.71
			c-1.84,4.41-2.57,9.55-2.57,14.69V564.6h-44.08V438.98z"/>
		<path class="st1" d="M2217.15,564.6l-2.94-19.84h-1.1c-11.02,13.96-29.75,23.88-52.89,23.88c-36,0-56.2-26.08-56.2-53.26
			c0-45.18,40.04-67.95,106.16-67.59v-2.94c0-11.75-4.78-31.22-36.37-31.22c-17.63,0-36,5.51-48.12,13.22l-8.82-29.39
			c13.22-8.08,36.37-15.8,64.65-15.8c57.3,0,73.83,36.37,73.83,75.3v64.65c0,16.16,0.73,31.96,2.57,42.98H2217.15z M2211.27,477.18
			c-31.96-0.73-62.45,6.24-62.45,33.43c0,17.63,11.39,25.71,25.71,25.71c18,0,31.22-11.75,35.26-24.61c1.1-3.31,1.47-6.98,1.47-9.92
			V477.18z"/>
		<path class="st1" d="M2303.1,438.98c0-20.57-0.37-37.83-1.47-53.26h39.67l2.2,26.81h1.1c7.71-13.96,27.18-30.86,56.94-30.86
			c31.22,0,63.55,20.2,63.55,76.77V564.6h-45.18V463.59c0-25.71-9.55-45.18-34.16-45.18c-18,0-30.49,12.86-35.26,26.45
			c-1.47,4.04-1.84,9.55-1.84,14.69V564.6h-45.55V438.98z"/>
		<path class="st1" d="M2513.21,438.98c0-20.57-0.37-37.83-1.47-53.26h39.67l2.2,26.81h1.1c7.71-13.96,27.18-30.86,56.93-30.86
			c31.22,0,63.55,20.2,63.55,76.77V564.6h-45.18V463.59c0-25.71-9.55-45.18-34.16-45.18c-18,0-30.49,12.86-35.26,26.45
			c-1.47,4.04-1.84,9.55-1.84,14.69V564.6h-45.55V438.98z"/>
	</g>
	<g>
		<polygon class="st0" points="125.24,214.34 125.24,0.75 0,0.75 0,564.7 126.01,564.7 126.01,321.14 283.32,321.14 283.32,214.34 
					"/>
		<polygon class="st1" points="566.83,0.75 566.83,214.34 411.01,214.34 411.01,0.77 410.29,0.77 408.55,0.77 408.55,0.75 
			283.52,0.75 283.52,214.34 283.32,214.34 283.32,321.14 283.32,564.7 285.82,564.7 398.95,564.7 398.95,564.75 411.01,564.75 
			411.01,321.14 569.14,321.14 569.14,564.7 693.61,564.7 693.61,0.75 		"/>
	</g>
</g>
</svg>
